<svg width="1920" height="1080" viewBox="0 0 1920 1080" fill="none" xmlns="http://www.w3.org/2000/svg">
<rect width="1920" height="1080" fill="#FBF4F4"/>
<g opacity="0.4">
<g opacity="0.25">
<rect width="436.748" height="102.991" transform="matrix(-1 0 0 1 614.75 309)" fill="#90AFC5"/>
<rect width="436.748" height="102.991" transform="matrix(-1 0 0 1 614.75 514.984)" fill="#90AFC5"/>
<rect width="436.748" height="102.991" transform="matrix(-1 0 0 1 614.75 720.969)" fill="#90AFC5"/>
<rect width="109.187" height="308.973" transform="matrix(-1 0 0 1 614.75 309)" fill="#90AFC5"/>
<rect width="109.187" height="308.973" transform="matrix(-1 0 0 1 287.191 514.984)" fill="#90AFC5"/>
</g>
<path d="M459.899 541.345C537.509 646.041 442.624 707.512 361.501 704.636" stroke="#070707" stroke-width="6" stroke-linecap="round" stroke-dasharray="10 10"/>
<path d="M322.8 521.573C323.87 522.836 325.21 523.873 326.733 524.615C328.256 525.357 329.928 525.789 331.641 525.882C333.353 525.975 335.067 525.726 336.671 525.153C338.276 524.58 339.735 523.695 340.953 522.556L387.181 479.347L404.087 497.617L392.255 518.426C390.883 520.838 390.292 523.575 390.555 526.299C390.818 529.022 391.924 531.612 393.734 533.748C397.73 538.465 405.029 539.231 410.034 535.458L427.158 522.551L431.721 527.477C433.959 530.119 437.22 531.814 440.785 532.188C444.349 532.562 447.927 531.585 450.731 529.472C453.534 527.358 455.334 524.282 455.733 520.92C456.133 517.558 455.1 514.185 452.862 511.543L448.769 506.262L465.899 493.351C470.904 489.579 471.722 482.694 467.726 477.977C464.03 473.614 457.929 471.749 452.21 473.236L428.077 479.526L412.919 459.947L467.801 426.954C473.931 423.272 475.321 415.386 470.789 410.036C466.831 405.364 460.293 403.371 454.176 404.962L384.432 423.14C376.639 413.083 369.233 402.604 360.993 392.876C357.636 388.913 352.745 386.372 347.398 385.811C342.05 385.25 336.684 386.715 332.479 389.885C328.274 393.054 325.574 397.668 324.975 402.712C324.375 407.755 325.925 412.815 329.282 416.778C337.522 426.505 346.721 435.625 355.401 445.013L321.218 505.169C319.755 507.752 319.124 510.681 319.405 513.596C319.687 516.511 320.867 519.284 322.8 521.573Z" fill="#2A3132"/>
<path d="M501.27 725.646C508.971 724.098 516.595 726.379 523.955 731.662C531.337 736.961 538.332 745.207 544.604 755.29C557.146 775.451 566.536 802.527 570.36 826.595C570.948 830.296 569.821 833.123 567.303 835.409C564.67 837.799 560.435 839.657 554.783 840.936C543.509 843.487 527.514 843.54 510.326 841.951C493.181 840.366 475.027 837.164 459.519 833.31C443.934 829.438 431.268 824.966 424.93 820.933C422.131 819.151 420.624 816.65 420.145 813.492C419.653 810.251 420.241 806.25 421.86 801.646C425.098 792.438 432.233 781.448 441.354 770.638C450.452 759.856 461.413 749.386 472.159 741.206C482.962 732.984 493.334 727.241 501.27 725.646Z" fill="white" stroke="#070707" stroke-width="4"/>
<rect width="54.6029" height="60.3081" transform="matrix(0.981403 0.189354 -0.212048 0.977826 463.879 774.594)" fill="#070707"/>
</g>
<g opacity="0.4">
<g opacity="0.5">
<rect x="1307.55" y="311.164" width="432.178" height="102.565" fill="#90AFC5"/>
<rect x="1307.55" y="516.297" width="432.178" height="102.565" fill="#90AFC5"/>
<rect x="1307.55" y="721.43" width="432.178" height="102.565" fill="#90AFC5"/>
<rect x="1307.55" y="311.164" width="108.044" height="307.696" fill="#90AFC5"/>
<rect x="1631.69" y="516.297" width="108.044" height="307.696" fill="#90AFC5"/>
</g>
<path d="M1613.46 475.091C1816.78 511.377 1596.63 576.472 1793.99 649.788" stroke="#070707" stroke-width="6" stroke-linecap="round" stroke-dasharray="10 10"/>
<path d="M1613.46 475.091C1816.78 511.377 1596.63 576.472 1793.99 649.788" stroke="black" stroke-opacity="0.2" stroke-width="6" stroke-linecap="round" stroke-dasharray="10 10"/>
<path d="M1491.99 682.464C1437.86 707.293 1423.37 716.289 1380.41 722.533C1330.02 729.857 1313.55 715.828 1311.37 702.286C1309.18 688.744 1348.27 671.828 1398.67 664.504C1449.07 657.18 1489.8 668.922 1491.99 682.464Z" fill="#070707"/>
<path d="M1466.82 639.575C1479.71 650.252 1487.79 663.899 1488.61 676.144C1485.85 677.468 1483.31 678.692 1480.96 679.825C1462.3 688.818 1455.63 692.03 1449.89 693.792C1446.65 694.786 1443.69 695.317 1438.88 696.167L1438.63 696.211C1433.88 697.05 1427.43 698.188 1417.39 700.357C1386.08 701.036 1370.27 692.54 1355.97 684.855C1352.43 682.953 1348.99 681.1 1345.42 679.449C1345.6 667.172 1352.98 653.156 1365.33 641.892C1378.05 630.29 1395.8 621.848 1415.58 621.397C1435.37 620.945 1453.53 628.566 1466.82 639.575Z" fill="white" stroke="#070707" stroke-width="4"/>
<path d="M1353.16 675.497L1361.04 653.337L1364.12 654.323L1363.06 666.847L1362.97 667.96L1363.15 668.019L1367.63 655.446L1370.64 656.413L1362.76 678.573L1359.99 677.684L1360.74 665.063L1360.83 663.95L1360.65 663.891L1356.18 676.464L1353.16 675.497ZM1367.78 680.18L1371.13 670.744L1372.3 656.946L1375.54 657.981L1374.63 665.584L1374.39 666.583L1374.48 666.612L1374.93 665.682L1379.07 659.114L1382.3 660.15L1374.42 671.798L1371.07 681.235L1367.78 680.18Z" fill="#070707"/>
<path d="M1561.7 378.804L1545.12 373.109L1534.18 401.815L1569.65 413.995L1568.73 388.014C1568.6 383.877 1565.83 380.22 1561.7 378.804ZM1519.07 396.628L1530.01 367.922L1504.46 359.146C1501.41 358.098 1498.01 358.419 1495.22 360.033L1464.5 377.888L1519.07 396.628ZM1438.33 369.239L1484.05 342.668C1492.37 337.817 1502.56 336.853 1511.75 340.009L1569 359.667C1581.36 363.914 1589.75 374.876 1590.17 387.327L1591.4 422.952C1597.81 428.335 1600.47 437.058 1597.38 445.161L1584.62 478.652C1582.6 483.945 1576.47 486.675 1570.9 484.763L1560.42 481.164C1552.86 493.918 1536.48 499.996 1521.5 494.851C1506.52 489.707 1498.03 475.092 1500.82 460.695L1459.68 446.57C1452.12 459.324 1435.74 465.402 1420.76 460.257C1405.78 455.113 1397.3 440.498 1400.08 426.101L1389.6 422.502C1384.03 420.589 1381.16 414.768 1383.17 409.475L1388.64 395.122C1396.07 375.625 1417.56 364.812 1438.3 369.228L1438.33 369.239ZM1447.81 431.673C1447.86 429.652 1447.48 427.642 1446.7 425.761C1445.92 423.88 1444.76 422.165 1443.28 420.715C1441.79 419.266 1440.02 418.111 1438.06 417.318C1436.11 416.525 1434 416.109 1431.87 416.095C1429.75 416.081 1427.63 416.469 1425.67 417.236C1423.7 418.004 1421.91 419.135 1420.4 420.565C1418.89 421.994 1417.7 423.694 1416.89 425.564C1416.08 427.435 1415.67 429.439 1415.69 431.461C1415.64 433.483 1416.02 435.492 1416.8 437.374C1417.58 439.255 1418.74 440.97 1420.23 442.419C1421.71 443.868 1423.48 445.023 1425.44 445.816C1427.4 446.609 1429.5 447.025 1431.63 447.039C1433.76 447.053 1435.87 446.665 1437.84 445.898C1439.81 445.131 1441.6 443.999 1443.1 442.57C1444.61 441.14 1445.8 439.441 1446.61 437.57C1447.42 435.699 1447.83 433.695 1447.81 431.673ZM1537.91 451.792C1533.91 450.416 1529.49 450.609 1525.63 452.328C1521.77 454.046 1518.79 457.151 1517.34 460.957C1515.89 464.764 1516.09 468.961 1517.89 472.626C1519.7 476.291 1522.97 479.122 1526.97 480.498C1530.98 481.874 1535.4 481.681 1539.26 479.962C1543.11 478.243 1546.1 475.139 1547.55 471.332C1549 467.526 1548.8 463.328 1546.99 459.664C1545.18 455.999 1541.92 453.168 1537.91 451.792Z" fill="#50312F"/>
</g>
</svg>
