<svg width="1920" height="1080" viewBox="0 0 1920 1080" fill="none" xmlns="http://www.w3.org/2000/svg">
<rect width="1920" height="1080" fill="#FBF4F4"/>
<g opacity="0.4">
<g opacity="0.5">
<rect x="1405" y="294.094" width="418.595" height="98.7102" fill="#90AFC5"/>
<rect x="1405" y="491.513" width="418.595" height="98.7102" fill="#90AFC5"/>
<rect x="1405" y="688.936" width="418.595" height="98.7102" fill="#90AFC5"/>
<rect x="1405" y="294.094" width="104.649" height="296.131" fill="#90AFC5"/>
<rect x="1718.95" y="491.513" width="104.649" height="296.131" fill="#90AFC5"/>
</g>
<path d="M1583.64 651.44C1531.21 675.336 1517.18 683.994 1475.57 690.003C1426.76 697.052 1410.81 683.55 1408.7 670.517C1406.58 657.484 1444.44 641.204 1493.25 634.155C1542.07 627.107 1581.53 638.407 1583.64 651.44Z" fill="#070707"/>
<path d="M1582.36 646.545C1533.07 670.096 1551.43 662.019 1511.62 670.582C1472.24 671.476 1457.34 657.588 1439.74 649.78C1439.09 624.11 1470.2 591.639 1509.59 590.746C1548.97 589.852 1581.7 620.875 1582.36 646.545Z" fill="white"/>
<path d="M1448.83 645.819L1456.76 623.675L1459.84 624.656L1458.75 637.166L1458.66 638.278L1458.85 638.336L1463.34 625.773L1466.36 626.734L1458.43 648.878L1455.66 647.994L1456.44 635.387L1456.53 634.275L1456.35 634.217L1451.85 646.78L1448.83 645.819ZM1463.45 650.476L1466.83 641.046L1468.02 627.263L1471.26 628.293L1470.34 635.888L1470.1 636.886L1470.19 636.915L1470.64 635.985L1474.79 629.419L1478.02 630.449L1470.12 642.094L1466.74 651.524L1463.45 650.476Z" fill="#070707"/>
<path d="M1651.16 359.178L1635.1 353.697L1624.5 381.324L1658.86 393.046L1657.97 368.041C1657.84 364.06 1655.15 360.541 1651.16 359.178ZM1609.87 376.332L1620.47 348.704L1595.71 340.259C1592.76 339.25 1589.47 339.559 1586.77 341.112L1557.02 358.296L1609.87 376.332ZM1531.67 349.972L1575.94 324.4C1584.01 319.731 1593.88 318.803 1602.78 321.84L1658.22 340.76C1670.2 344.848 1678.33 355.397 1678.73 367.381L1679.92 401.666C1686.14 406.847 1688.71 415.242 1685.72 423.041L1673.36 455.273C1671.4 460.367 1665.47 462.995 1660.07 461.154L1649.92 457.69C1642.59 469.965 1626.73 475.814 1612.22 470.863C1597.71 465.912 1589.49 451.846 1592.19 437.991L1552.35 424.396C1545.02 436.671 1529.16 442.52 1514.65 437.569C1500.14 432.619 1491.92 418.553 1494.61 404.697L1484.46 401.233C1479.07 399.392 1476.29 393.79 1478.24 388.696L1483.54 374.882C1490.74 356.119 1511.55 345.711 1531.64 349.962L1531.67 349.972ZM1540.85 410.06C1540.9 408.114 1540.53 406.18 1539.77 404.37C1539.02 402.559 1537.89 400.909 1536.46 399.514C1535.02 398.119 1533.3 397.008 1531.41 396.244C1529.51 395.481 1527.47 395.081 1525.41 395.067C1523.35 395.054 1521.31 395.427 1519.4 396.166C1517.49 396.904 1515.76 397.993 1514.3 399.369C1512.84 400.745 1511.68 402.38 1510.9 404.18C1510.12 405.981 1509.72 407.91 1509.73 409.856C1509.69 411.801 1510.06 413.735 1510.81 415.546C1511.57 417.356 1512.69 419.007 1514.13 420.402C1515.57 421.796 1517.28 422.908 1519.18 423.671C1521.07 424.434 1523.11 424.834 1525.17 424.848C1527.24 424.861 1529.28 424.488 1531.19 423.75C1533.1 423.011 1534.83 421.923 1536.29 420.547C1537.75 419.171 1538.9 417.535 1539.68 415.735C1540.47 413.935 1540.86 412.005 1540.85 410.06ZM1628.12 429.422C1624.24 428.098 1619.96 428.283 1616.22 429.938C1612.48 431.592 1609.59 434.58 1608.19 438.243C1606.78 441.907 1606.98 445.946 1608.73 449.473C1610.48 453 1613.64 455.725 1617.52 457.049C1621.4 458.374 1625.68 458.188 1629.42 456.534C1633.16 454.879 1636.05 451.892 1637.45 448.228C1638.86 444.565 1638.66 440.525 1636.91 436.998C1635.16 433.471 1632 430.746 1628.12 429.422Z" fill="#50312F"/>
</g>
<g opacity="0.4">
<g opacity="0.25">
<rect width="436.748" height="102.991" transform="matrix(-1 0 0 1 523.749 271)" fill="#90AFC5"/>
<rect width="436.748" height="102.991" transform="matrix(-1 0 0 1 523.749 476.981)" fill="#90AFC5"/>
<rect width="436.748" height="102.991" transform="matrix(-1 0 0 1 523.749 682.965)" fill="#90AFC5"/>
<rect width="109.187" height="308.973" transform="matrix(-1 0 0 1 523.749 271)" fill="#90AFC5"/>
<rect width="109.187" height="308.973" transform="matrix(-1 0 0 1 196.188 476.981)" fill="#90AFC5"/>
</g>
<path d="M231.802 483.569C232.872 484.832 234.212 485.869 235.735 486.611C237.258 487.354 238.93 487.786 240.642 487.878C242.354 487.971 244.068 487.723 245.673 487.15C247.277 486.577 248.736 485.692 249.954 484.552L296.182 441.344L313.088 459.613L301.256 480.423C299.885 482.834 299.294 485.571 299.557 488.295C299.82 491.019 300.925 493.609 302.735 495.744C306.731 500.461 314.031 501.227 319.036 497.454L336.16 484.548L340.723 489.474C342.961 492.116 346.221 493.81 349.786 494.184C353.351 494.558 356.929 493.581 359.732 491.468C362.536 489.355 364.335 486.279 364.735 482.917C365.134 479.554 364.102 476.181 361.863 473.539L357.771 468.259L374.9 455.348C379.905 451.575 380.724 444.69 376.728 439.974C373.031 435.611 366.931 433.745 361.211 435.233L337.079 441.523L321.921 421.944L376.803 388.951C382.933 385.269 384.322 377.382 379.791 372.033C375.833 367.361 369.295 365.368 363.178 366.959L293.433 385.137C285.64 375.08 278.235 364.6 269.994 354.873C266.637 350.91 261.747 348.368 256.399 347.807C251.052 347.246 245.685 348.712 241.48 351.881C237.275 355.051 234.576 359.665 233.976 364.708C233.377 369.752 234.926 374.811 238.283 378.774C246.524 388.502 255.722 397.622 264.403 407.01L230.22 467.166C228.756 469.748 228.126 472.678 228.407 475.593C228.688 478.508 229.868 481.281 231.802 483.569Z" fill="#2A3132"/>
<path d="M409.883 685.688C443.456 678.94 473.616 739.692 481.336 788.279C486.913 823.376 359.387 801.51 332.854 784.624C306.32 767.738 376.31 692.436 409.883 685.688Z" fill="white"/>
<rect width="54.6029" height="60.3081" transform="matrix(0.981403 0.189354 -0.212048 0.977826 372.879 736.599)" fill="#070707"/>
</g>
</svg>
